<svg width="130" height="18" viewBox="0 0 130 18" fill="none" xmlns="http://www.w3.org/2000/svg">
<path d="M29.42 16V1.9H34.94C36.54 1.9 37.9 2.18 39.02 2.74C40.1533 3.28667 41.0133 4.08667 41.6 5.14C42.2 6.18 42.5 7.44667 42.5 8.94C42.5 10.4333 42.2 11.7067 41.6 12.76C41.0133 13.8133 40.1533 14.62 39.02 15.18C37.9 15.7267 36.54 16 34.94 16H29.42ZM32.52 13.46H34.76C36.2667 13.46 37.3933 13.0867 38.14 12.34C38.8867 11.5933 39.26 10.46 39.26 8.94C39.26 7.42 38.88 6.29333 38.12 5.56C37.3733 4.81333 36.2533 4.44 34.76 4.44H32.52V13.46Z" fill="#4880FF"/>
<path d="M47.9683 16.22C47.2483 16.22 46.6016 16.08 46.0283 15.8C45.4549 15.52 45.0083 15.14 44.6883 14.66C44.3683 14.18 44.2083 13.64 44.2083 13.04C44.2083 12.32 44.3949 11.7533 44.7683 11.34C45.1416 10.9133 45.7483 10.6133 46.5883 10.44C47.4283 10.2533 48.5416 10.16 49.9283 10.16H50.9883V11.72H49.9483C49.4283 11.72 48.9883 11.74 48.6283 11.78C48.2816 11.82 47.9949 11.8933 47.7683 12C47.5416 12.0933 47.3749 12.2133 47.2683 12.36C47.1749 12.5067 47.1283 12.6933 47.1283 12.92C47.1283 13.2933 47.2549 13.6 47.5083 13.84C47.7749 14.08 48.1549 14.2 48.6483 14.2C49.0349 14.2 49.3749 14.1133 49.6683 13.94C49.9749 13.7533 50.2149 13.5067 50.3883 13.2C50.5616 12.88 50.6483 12.52 50.6483 12.12V9.82C50.6483 9.23333 50.5149 8.82 50.2483 8.58C49.9816 8.32667 49.5283 8.2 48.8883 8.2C48.3549 8.2 47.7883 8.28667 47.1883 8.46C46.6016 8.62 46.0149 8.86667 45.4283 9.2L44.6083 7.18C44.9549 6.94 45.3749 6.73333 45.8683 6.56C46.3749 6.37333 46.9016 6.23333 47.4483 6.14C47.9949 6.03333 48.5149 5.98 49.0083 5.98C50.0349 5.98 50.8749 6.13333 51.5283 6.44C52.1949 6.73333 52.6949 7.19333 53.0283 7.82C53.3616 8.43333 53.5283 9.22667 53.5283 10.2V16H50.7083V14.02H50.8483C50.7683 14.4733 50.5949 14.8667 50.3283 15.2C50.0749 15.52 49.7483 15.7733 49.3483 15.96C48.9483 16.1333 48.4883 16.22 47.9683 16.22Z" fill="#4880FF"/>
<path d="M59.5411 16.22C58.9678 16.22 58.4144 16.1733 57.8811 16.08C57.3478 15.9867 56.8611 15.86 56.4211 15.7C55.9811 15.54 55.5944 15.34 55.2611 15.1L55.9811 13.14C56.3144 13.34 56.6744 13.52 57.0611 13.68C57.4611 13.8267 57.8744 13.94 58.3011 14.02C58.7278 14.1 59.1478 14.14 59.5611 14.14C60.1344 14.14 60.5478 14.0533 60.8011 13.88C61.0678 13.6933 61.2011 13.4533 61.2011 13.16C61.2011 12.8933 61.1144 12.6933 60.9411 12.56C60.7678 12.4267 60.5144 12.3333 60.1811 12.28L58.0811 11.9C57.2544 11.7533 56.6144 11.4533 56.1611 11C55.7211 10.5333 55.5011 9.94 55.5011 9.22C55.5011 8.55333 55.6878 7.98 56.0611 7.5C56.4344 7.00667 56.9478 6.63333 57.6011 6.38C58.2678 6.11333 59.0211 5.98 59.8611 5.98C60.3411 5.98 60.8078 6.02 61.2611 6.1C61.7144 6.18 62.1411 6.3 62.5411 6.46C62.9544 6.62 63.3211 6.83333 63.6411 7.1L62.8811 9.04C62.6278 8.84 62.3278 8.66667 61.9811 8.52C61.6344 8.37333 61.2811 8.26 60.9211 8.18C60.5611 8.08667 60.2211 8.04 59.9011 8.04C59.3011 8.04 58.8678 8.14 58.6011 8.34C58.3344 8.52667 58.2011 8.76667 58.2011 9.06C58.2011 9.28667 58.2744 9.48 58.4211 9.64C58.5811 9.78667 58.8211 9.88667 59.1411 9.94L61.2411 10.32C62.1078 10.4667 62.7678 10.76 63.2211 11.2C63.6744 11.6267 63.9011 12.2133 63.9011 12.96C63.9011 13.64 63.7211 14.2267 63.3611 14.72C63.0011 15.2 62.4944 15.5733 61.8411 15.84C61.1878 16.0933 60.4211 16.22 59.5411 16.22Z" fill="#4880FF"/>
<path d="M65.6248 16V1.9H68.6448V8.02H68.3648C68.6715 7.36667 69.1248 6.86667 69.7248 6.52C70.3382 6.16 71.0315 5.98 71.8048 5.98C72.5915 5.98 73.2382 6.13333 73.7448 6.44C74.2515 6.73333 74.6315 7.18667 74.8848 7.8C75.1382 8.4 75.2648 9.16667 75.2648 10.1V16H72.2448V10.24C72.2448 9.78667 72.1848 9.42 72.0648 9.14C71.9582 8.84667 71.7915 8.64 71.5648 8.52C71.3515 8.38667 71.0782 8.32 70.7448 8.32C70.3182 8.32 69.9448 8.41333 69.6248 8.6C69.3182 8.77333 69.0782 9.02667 68.9048 9.36C68.7315 9.69333 68.6448 10.08 68.6448 10.52V16H65.6248Z" fill="#4880FF"/>
<path d="M82.8194 16.22C82.086 16.22 81.3727 16.1533 80.6794 16.02C79.9994 15.9 79.366 15.7267 78.7794 15.5C78.1927 15.26 77.6794 14.98 77.2394 14.66L78.1394 12.22C78.566 12.5133 79.026 12.7667 79.5194 12.98C80.0127 13.1933 80.5394 13.36 81.0994 13.48C81.6594 13.5867 82.2327 13.64 82.8194 13.64C83.7927 13.64 84.486 13.4933 84.8994 13.2C85.3127 12.8933 85.5194 12.5133 85.5194 12.06C85.5194 11.8067 85.4527 11.5867 85.3194 11.4C85.1994 11.2133 84.9927 11.0533 84.6994 10.92C84.4194 10.7733 84.0327 10.6533 83.5394 10.56L81.2794 10.08C79.9994 9.81333 79.046 9.36 78.4194 8.72C77.806 8.06667 77.4994 7.21333 77.4994 6.16C77.4994 5.25333 77.7394 4.46667 78.2194 3.8C78.7127 3.13333 79.386 2.61333 80.2394 2.24C81.106 1.86667 82.0994 1.68 83.2194 1.68C83.8727 1.68 84.4994 1.74667 85.0994 1.88C85.6994 2 86.2527 2.18 86.7594 2.42C87.266 2.66 87.706 2.94667 88.0794 3.28L87.1794 5.56C86.646 5.13333 86.046 4.81333 85.3794 4.6C84.7127 4.37333 83.986 4.26 83.1994 4.26C82.6394 4.26 82.1594 4.33333 81.7594 4.48C81.3727 4.62667 81.0727 4.83333 80.8594 5.1C80.6594 5.36667 80.5594 5.67333 80.5594 6.02C80.5594 6.40667 80.6994 6.72 80.9794 6.96C81.2594 7.2 81.746 7.39333 82.4394 7.54L84.6994 8.02C86.006 8.3 86.9794 8.75333 87.6194 9.38C88.2594 9.99333 88.5794 10.8067 88.5794 11.82C88.5794 12.7 88.3394 13.4733 87.8594 14.14C87.3927 14.7933 86.726 15.3067 85.8594 15.68C85.006 16.04 83.9927 16.22 82.8194 16.22Z" fill="#202224"/>
<path d="M95.0152 16.22C93.6152 16.22 92.5752 15.88 91.8952 15.2C91.2152 14.52 90.8752 13.52 90.8752 12.2V8.44H89.0152V6.18H90.8752V3.3H93.8952V6.18H96.7952V8.44H93.8952V12.08C93.8952 12.64 94.0218 13.06 94.2752 13.34C94.5418 13.62 94.9618 13.76 95.5352 13.76C95.7085 13.76 95.8885 13.74 96.0752 13.7C96.2752 13.66 96.4885 13.6067 96.7152 13.54L97.1552 15.74C96.8752 15.8867 96.5418 16 96.1552 16.08C95.7685 16.1733 95.3885 16.22 95.0152 16.22Z" fill="#202224"/>
<path d="M101.601 16.22C100.881 16.22 100.234 16.08 99.6611 15.8C99.0878 15.52 98.6411 15.14 98.3211 14.66C98.0011 14.18 97.8411 13.64 97.8411 13.04C97.8411 12.32 98.0278 11.7533 98.4011 11.34C98.7744 10.9133 99.3811 10.6133 100.221 10.44C101.061 10.2533 102.174 10.16 103.561 10.16H104.621V11.72H103.581C103.061 11.72 102.621 11.74 102.261 11.78C101.914 11.82 101.628 11.8933 101.401 12C101.174 12.0933 101.008 12.2133 100.901 12.36C100.808 12.5067 100.761 12.6933 100.761 12.92C100.761 13.2933 100.888 13.6 101.141 13.84C101.408 14.08 101.788 14.2 102.281 14.2C102.668 14.2 103.008 14.1133 103.301 13.94C103.608 13.7533 103.848 13.5067 104.021 13.2C104.194 12.88 104.281 12.52 104.281 12.12V9.82C104.281 9.23333 104.148 8.82 103.881 8.58C103.614 8.32667 103.161 8.2 102.521 8.2C101.988 8.2 101.421 8.28667 100.821 8.46C100.234 8.62 99.6478 8.86667 99.0611 9.2L98.2411 7.18C98.5878 6.94 99.0078 6.73333 99.5011 6.56C100.008 6.37333 100.534 6.23333 101.081 6.14C101.628 6.03333 102.148 5.98 102.641 5.98C103.668 5.98 104.508 6.13333 105.161 6.44C105.828 6.73333 106.328 7.19333 106.661 7.82C106.994 8.43333 107.161 9.22667 107.161 10.2V16H104.341V14.02H104.481C104.401 14.4733 104.228 14.8667 103.961 15.2C103.708 15.52 103.381 15.7733 102.981 15.96C102.581 16.1333 102.121 16.22 101.601 16.22Z" fill="#202224"/>
<path d="M114.194 16.22C113.127 16.22 112.194 16.0133 111.394 15.6C110.607 15.1733 110.001 14.5733 109.574 13.8C109.147 13.0267 108.934 12.1133 108.934 11.06C108.934 10.0067 109.147 9.1 109.574 8.34C110.001 7.58 110.607 7 111.394 6.6C112.194 6.18667 113.127 5.98 114.194 5.98C114.834 5.98 115.467 6.07333 116.094 6.26C116.734 6.44667 117.254 6.71333 117.654 7.06L116.814 9.14C116.494 8.87333 116.121 8.66667 115.694 8.52C115.267 8.36 114.867 8.28 114.494 8.28C113.707 8.28 113.094 8.52667 112.654 9.02C112.227 9.5 112.014 10.1867 112.014 11.08C112.014 11.96 112.227 12.6533 112.654 13.16C113.094 13.6533 113.707 13.9 114.494 13.9C114.867 13.9 115.267 13.8267 115.694 13.68C116.121 13.5333 116.494 13.32 116.814 13.04L117.654 15.12C117.254 15.4533 116.734 15.72 116.094 15.92C115.454 16.12 114.821 16.22 114.194 16.22Z" fill="#202224"/>
<path d="M118.965 16V1.9H121.985V10.24H122.025L125.645 6.18H129.225L124.565 11.44V10.3L129.425 16H125.785L122.025 11.76H121.985V16H118.965Z" fill="#202224"/>
<path d="M1 10H7C7.55 10 8 9.55 8 9V1C8 0.45 7.55 0 7 0H1C0.45 0 0 0.45 0 1V9C0 9.55 0.45 10 1 10ZM1 18H7C7.55 18 8 17.55 8 17V13C8 12.45 7.55 12 7 12H1C0.45 12 0 12.45 0 13V17C0 17.55 0.45 18 1 18ZM11 18H17C17.55 18 18 17.55 18 17V9C18 8.45 17.55 8 17 8H11C10.45 8 10 8.45 10 9V17C10 17.55 10.45 18 11 18ZM10 1V5C10 5.55 10.45 6 11 6H17C17.55 6 18 5.55 18 5V1C18 0.45 17.55 0 17 0H11C10.45 0 10 0.45 10 1Z" fill="#4880FF"/>
</svg>
