<svg width="101" height="16" viewBox="0 0 101 16" fill="none" xmlns="http://www.w3.org/2000/svg">
<path d="M0.419983 15V0.899992H5.93998C7.53998 0.899992 8.89998 1.17999 10.02 1.73999C11.1533 2.28666 12.0133 3.08666 12.6 4.13999C13.2 5.17999 13.5 6.44666 13.5 7.93999C13.5 9.43333 13.2 10.7067 12.6 11.76C12.0133 12.8133 11.1533 13.62 10.02 14.18C8.89998 14.7267 7.53998 15 5.93998 15H0.419983ZM3.51998 12.46H5.75998C7.26665 12.46 8.39332 12.0867 9.13998 11.34C9.88665 10.5933 10.26 9.45999 10.26 7.93999C10.26 6.41999 9.87998 5.29333 9.11998 4.55999C8.37332 3.81333 7.25332 3.43999 5.75998 3.43999H3.51998V12.46Z" fill="#4880FF"/>
<path d="M18.9683 15.22C18.2483 15.22 17.6016 15.08 17.0283 14.8C16.4549 14.52 16.0083 14.14 15.6883 13.66C15.3683 13.18 15.2083 12.64 15.2083 12.04C15.2083 11.32 15.3949 10.7533 15.7683 10.34C16.1416 9.91333 16.7483 9.61333 17.5883 9.43999C18.4283 9.25333 19.5416 9.15999 20.9283 9.15999H21.9883V10.72H20.9483C20.4283 10.72 19.9883 10.74 19.6283 10.78C19.2816 10.82 18.9949 10.8933 18.7683 11C18.5416 11.0933 18.3749 11.2133 18.2683 11.36C18.1749 11.5067 18.1283 11.6933 18.1283 11.92C18.1283 12.2933 18.2549 12.6 18.5083 12.84C18.7749 13.08 19.1549 13.2 19.6483 13.2C20.0349 13.2 20.3749 13.1133 20.6683 12.94C20.9749 12.7533 21.2149 12.5067 21.3883 12.2C21.5616 11.88 21.6483 11.52 21.6483 11.12V8.81999C21.6483 8.23333 21.5149 7.81999 21.2483 7.57999C20.9816 7.32666 20.5283 7.19999 19.8883 7.19999C19.3549 7.19999 18.7883 7.28666 18.1883 7.45999C17.6016 7.61999 17.0149 7.86666 16.4283 8.19999L15.6083 6.17999C15.9549 5.93999 16.3749 5.73333 16.8683 5.55999C17.3749 5.37333 17.9016 5.23333 18.4483 5.13999C18.9949 5.03333 19.5149 4.97999 20.0083 4.97999C21.0349 4.97999 21.8749 5.13333 22.5283 5.43999C23.1949 5.73333 23.6949 6.19333 24.0283 6.81999C24.3616 7.43333 24.5283 8.22666 24.5283 9.19999V15H21.7083V13.02H21.8483C21.7683 13.4733 21.5949 13.8667 21.3283 14.2C21.0749 14.52 20.7483 14.7733 20.3483 14.96C19.9483 15.1333 19.4883 15.22 18.9683 15.22Z" fill="#4880FF"/>
<path d="M30.5411 15.22C29.9677 15.22 29.4144 15.1733 28.8811 15.08C28.3477 14.9867 27.8611 14.86 27.4211 14.7C26.9811 14.54 26.5944 14.34 26.2611 14.1L26.9811 12.14C27.3144 12.34 27.6744 12.52 28.0611 12.68C28.4611 12.8267 28.8744 12.94 29.3011 13.02C29.7277 13.1 30.1477 13.14 30.5611 13.14C31.1344 13.14 31.5477 13.0533 31.8011 12.88C32.0677 12.6933 32.2011 12.4533 32.2011 12.16C32.2011 11.8933 32.1144 11.6933 31.9411 11.56C31.7677 11.4267 31.5144 11.3333 31.1811 11.28L29.0811 10.9C28.2544 10.7533 27.6144 10.4533 27.1611 9.99999C26.7211 9.53333 26.5011 8.93999 26.5011 8.21999C26.5011 7.55333 26.6877 6.97999 27.0611 6.49999C27.4344 6.00666 27.9477 5.63333 28.6011 5.37999C29.2677 5.11333 30.0211 4.97999 30.8611 4.97999C31.3411 4.97999 31.8077 5.01999 32.2611 5.09999C32.7144 5.17999 33.1411 5.29999 33.5411 5.45999C33.9544 5.61999 34.3211 5.83333 34.6411 6.09999L33.8811 8.03999C33.6277 7.83999 33.3277 7.66666 32.9811 7.51999C32.6344 7.37333 32.2811 7.25999 31.9211 7.17999C31.5611 7.08666 31.2211 7.03999 30.9011 7.03999C30.3011 7.03999 29.8677 7.13999 29.6011 7.33999C29.3344 7.52666 29.2011 7.76666 29.2011 8.05999C29.2011 8.28666 29.2744 8.47999 29.4211 8.63999C29.5811 8.78666 29.8211 8.88666 30.1411 8.93999L32.2411 9.31999C33.1077 9.46666 33.7677 9.75999 34.2211 10.2C34.6744 10.6267 34.9011 11.2133 34.9011 11.96C34.9011 12.64 34.7211 13.2267 34.3611 13.72C34.0011 14.2 33.4944 14.5733 32.8411 14.84C32.1877 15.0933 31.4211 15.22 30.5411 15.22Z" fill="#4880FF"/>
<path d="M36.6248 15V0.899992H39.6448V7.01999H39.3648C39.6715 6.36666 40.1248 5.86666 40.7248 5.51999C41.3382 5.15999 42.0315 4.97999 42.8048 4.97999C43.5915 4.97999 44.2382 5.13333 44.7448 5.43999C45.2515 5.73333 45.6315 6.18666 45.8848 6.79999C46.1382 7.39999 46.2648 8.16666 46.2648 9.09999V15H43.2448V9.23999C43.2448 8.78666 43.1848 8.41999 43.0648 8.13999C42.9582 7.84666 42.7915 7.63999 42.5648 7.51999C42.3515 7.38666 42.0782 7.31999 41.7448 7.31999C41.3182 7.31999 40.9448 7.41333 40.6248 7.59999C40.3182 7.77333 40.0782 8.02666 39.9048 8.35999C39.7315 8.69333 39.6448 9.07999 39.6448 9.51999V15H36.6248Z" fill="#4880FF"/>
<path d="M53.8194 15.22C53.086 15.22 52.3727 15.1533 51.6794 15.02C50.9994 14.9 50.366 14.7267 49.7794 14.5C49.1927 14.26 48.6794 13.98 48.2394 13.66L49.1394 11.22C49.566 11.5133 50.026 11.7667 50.5194 11.98C51.0127 12.1933 51.5394 12.36 52.0994 12.48C52.6594 12.5867 53.2327 12.64 53.8194 12.64C54.7927 12.64 55.486 12.4933 55.8994 12.2C56.3127 11.8933 56.5194 11.5133 56.5194 11.06C56.5194 10.8067 56.4527 10.5867 56.3194 10.4C56.1994 10.2133 55.9927 10.0533 55.6994 9.91999C55.4194 9.77333 55.0327 9.65333 54.5394 9.55999L52.2794 9.07999C50.9994 8.81333 50.046 8.35999 49.4194 7.71999C48.806 7.06666 48.4994 6.21333 48.4994 5.15999C48.4994 4.25333 48.7394 3.46666 49.2194 2.79999C49.7127 2.13333 50.386 1.61333 51.2394 1.23999C52.106 0.866659 53.0994 0.679993 54.2194 0.679993C54.8727 0.679993 55.4994 0.746659 56.0994 0.879992C56.6994 0.999993 57.2527 1.17999 57.7594 1.41999C58.266 1.65999 58.706 1.94666 59.0794 2.27999L58.1794 4.55999C57.646 4.13333 57.046 3.81333 56.3794 3.59999C55.7127 3.37333 54.986 3.25999 54.1994 3.25999C53.6394 3.25999 53.1594 3.33333 52.7594 3.47999C52.3727 3.62666 52.0727 3.83333 51.8594 4.09999C51.6594 4.36666 51.5594 4.67333 51.5594 5.01999C51.5594 5.40666 51.6994 5.71999 51.9794 5.95999C52.2594 6.19999 52.746 6.39333 53.4394 6.53999L55.6994 7.01999C57.006 7.29999 57.9794 7.75333 58.6194 8.37999C59.2594 8.99333 59.5794 9.80666 59.5794 10.82C59.5794 11.7 59.3394 12.4733 58.8594 13.14C58.3927 13.7933 57.726 14.3067 56.8594 14.68C56.006 15.04 54.9927 15.22 53.8194 15.22Z" fill="#202224"/>
<path d="M66.0151 15.22C64.6151 15.22 63.5751 14.88 62.8951 14.2C62.2151 13.52 61.8751 12.52 61.8751 11.2V7.43999H60.0151V5.17999H61.8751V2.29999H64.8951V5.17999H67.7951V7.43999H64.8951V11.08C64.8951 11.64 65.0218 12.06 65.2751 12.34C65.5418 12.62 65.9618 12.76 66.5351 12.76C66.7085 12.76 66.8885 12.74 67.0751 12.7C67.2751 12.66 67.4885 12.6067 67.7151 12.54L68.1551 14.74C67.8751 14.8867 67.5418 15 67.1551 15.08C66.7685 15.1733 66.3885 15.22 66.0151 15.22Z" fill="#202224"/>
<path d="M72.6011 15.22C71.8811 15.22 71.2344 15.08 70.6611 14.8C70.0877 14.52 69.6411 14.14 69.3211 13.66C69.0011 13.18 68.8411 12.64 68.8411 12.04C68.8411 11.32 69.0277 10.7533 69.4011 10.34C69.7744 9.91333 70.3811 9.61333 71.2211 9.43999C72.0611 9.25333 73.1744 9.15999 74.5611 9.15999H75.6211V10.72H74.5811C74.0611 10.72 73.6211 10.74 73.2611 10.78C72.9144 10.82 72.6277 10.8933 72.4011 11C72.1744 11.0933 72.0077 11.2133 71.9011 11.36C71.8077 11.5067 71.7611 11.6933 71.7611 11.92C71.7611 12.2933 71.8877 12.6 72.1411 12.84C72.4077 13.08 72.7877 13.2 73.2811 13.2C73.6677 13.2 74.0077 13.1133 74.3011 12.94C74.6077 12.7533 74.8477 12.5067 75.0211 12.2C75.1944 11.88 75.2811 11.52 75.2811 11.12V8.81999C75.2811 8.23333 75.1477 7.81999 74.8811 7.57999C74.6144 7.32666 74.1611 7.19999 73.5211 7.19999C72.9877 7.19999 72.4211 7.28666 71.8211 7.45999C71.2344 7.61999 70.6477 7.86666 70.0611 8.19999L69.2411 6.17999C69.5877 5.93999 70.0077 5.73333 70.5011 5.55999C71.0077 5.37333 71.5344 5.23333 72.0811 5.13999C72.6277 5.03333 73.1477 4.97999 73.6411 4.97999C74.6677 4.97999 75.5077 5.13333 76.1611 5.43999C76.8277 5.73333 77.3277 6.19333 77.6611 6.81999C77.9944 7.43333 78.1611 8.22666 78.1611 9.19999V15H75.3411V13.02H75.4811C75.4011 13.4733 75.2277 13.8667 74.9611 14.2C74.7077 14.52 74.3811 14.7733 73.9811 14.96C73.5811 15.1333 73.1211 15.22 72.6011 15.22Z" fill="#202224"/>
<path d="M85.1939 15.22C84.1272 15.22 83.1939 15.0133 82.3939 14.6C81.6072 14.1733 81.0006 13.5733 80.5739 12.8C80.1472 12.0267 79.9339 11.1133 79.9339 10.06C79.9339 9.00666 80.1472 8.09999 80.5739 7.33999C81.0006 6.57999 81.6072 5.99999 82.3939 5.59999C83.1939 5.18666 84.1272 4.97999 85.1939 4.97999C85.8339 4.97999 86.4672 5.07333 87.0939 5.25999C87.7339 5.44666 88.2539 5.71333 88.6539 6.05999L87.8139 8.13999C87.4939 7.87333 87.1206 7.66666 86.6939 7.51999C86.2672 7.35999 85.8672 7.27999 85.4939 7.27999C84.7072 7.27999 84.0939 7.52666 83.6539 8.01999C83.2272 8.49999 83.0139 9.18666 83.0139 10.08C83.0139 10.96 83.2272 11.6533 83.6539 12.16C84.0939 12.6533 84.7072 12.9 85.4939 12.9C85.8672 12.9 86.2672 12.8267 86.6939 12.68C87.1206 12.5333 87.4939 12.32 87.8139 12.04L88.6539 14.12C88.2539 14.4533 87.7339 14.72 87.0939 14.92C86.4539 15.12 85.8206 15.22 85.1939 15.22Z" fill="#202224"/>
<path d="M89.9647 15V0.899992H92.9847V9.23999H93.0247L96.6447 5.17999H100.225L95.5647 10.44V9.29999L100.425 15H96.7847L93.0247 10.76H92.9847V15H89.9647Z" fill="#202224"/>
</svg>
