<svg width="17" height="17" viewBox="0 0 17 17" fill="none" xmlns="http://www.w3.org/2000/svg">
<path opacity="0.5" d="M12 6.5C12 5.5 11.75 4.58333 11.25 3.75C10.7708 2.91667 10.1042 2.25 9.25 1.75C8.375 1.25 7.45833 1 6.5 1C5.54167 1 4.625 1.25 3.75 1.75C2.89583 2.25 2.22917 2.91667 1.75 3.75C1.25 4.58333 1 5.5 1 6.5C1 7.5 1.25 8.41667 1.75 9.25C2.22917 10.0833 2.89583 10.75 3.75 11.25C4.625 11.75 5.54167 12 6.5 12C7.45833 12 8.375 11.75 9.25 11.25C10.1042 10.75 10.7708 10.0833 11.25 9.25C11.75 8.41667 12 7.5 12 6.5ZM10.7188 11.4375C9.55208 12.4375 8.14583 12.9583 6.5 13C4.66667 12.9583 3.13542 12.3229 1.90625 11.0938C0.677083 9.86458 0.0416667 8.33333 0 6.5C0.0416667 4.66667 0.677083 3.13542 1.90625 1.90625C3.13542 0.677083 4.66667 0.0416667 6.5 0C8.33333 0.0416667 9.86458 0.677083 11.0938 1.90625C12.3229 3.13542 12.9583 4.66667 13 6.5C12.9583 8.14583 12.4375 9.55208 11.4375 10.7188L15.8438 15.1562C16.0521 15.3854 16.0521 15.6146 15.8438 15.8438C15.6146 16.0521 15.3854 16.0521 15.1562 15.8438L10.7188 11.4375Z" fill="#202224"/>
</svg>
